<svg width="48" height="49" viewBox="0 0 48 49" fill="none" xmlns="http://www.w3.org/2000/svg">
<mask id="mask0_46_1698" style="mask-type:alpha" maskUnits="userSpaceOnUse" x="0" y="0" width="48" height="49">
<rect y="0.75" width="48" height="48" fill="#D9D9D9"/>
</mask>
<g mask="url(#mask0_46_1698)">
<path d="M6.59998 40.15V39.05H23.475V16.4201C22.475 16.3067 21.5966 15.9017 20.8399 15.2051C20.0831 14.5085 19.6187 13.5901 19.4467 12.45H11.975L17.7 27.35C17.6166 28.5167 17.0395 29.5167 15.9685 30.35C14.8976 31.1833 13.6331 31.6 12.175 31.6C10.7031 31.6 9.42676 31.1833 8.34603 30.35C7.26533 29.5167 6.68331 28.5167 6.59998 27.35L12.425 12.45H8.59998V11.35H19.4347C19.6068 10.25 20.1164 9.30834 20.9636 8.52501C21.8109 7.74167 22.823 7.35001 24 7.35001C25.177 7.35001 26.1891 7.74167 27.0363 8.52501C27.8836 9.30834 28.3932 10.25 28.5652 11.35H39.4V12.45H35.65L41.425 27.35C41.3083 28.5208 40.7181 29.5219 39.6543 30.3531C38.5905 31.1844 37.3238 31.6 35.8543 31.6C34.3847 31.6 33.1166 31.1833 32.05 30.35C30.9833 29.5167 30.4083 28.5167 30.325 27.35L36.1 12.45H28.55C28.3833 13.5833 27.9225 14.4992 27.1676 15.1976C26.4126 15.896 25.5484 16.307 24.575 16.4305V39.05H41.4V40.15H6.59998ZM31.75 27.05H39.95L35.85 16.45L31.75 27.05ZM8.07498 27.05H16.275L12.175 16.45L8.07498 27.05ZM23.9901 15.35C24.9634 15.35 25.7875 15.0132 26.4625 14.3397C27.1375 13.6662 27.475 12.8537 27.475 11.9022C27.475 10.9174 27.1397 10.0958 26.4692 9.43751C25.7986 8.77917 24.9772 8.45001 24.0048 8.45001C23.0516 8.45001 22.2416 8.78074 21.575 9.44221C20.9083 10.1036 20.575 10.9138 20.575 11.8728C20.575 12.8409 20.9092 13.6625 21.5776 14.3375C22.246 15.0125 23.0502 15.35 23.9901 15.35Z" fill="#DFB187"/>
</g>
</svg>
