<svg width="48" height="48" viewBox="0 0 48 48" fill="none" xmlns="http://www.w3.org/2000/svg">
<mask id="mask0_46_1414" style="mask-type:alpha" maskUnits="userSpaceOnUse" x="0" y="0" width="48" height="48">
<rect width="48" height="48" fill="#DFB187"/>
</mask>
<g mask="url(#mask0_46_1414)">
<path d="M4.6748 38.375V31.6763C4.6748 31.0275 4.89245 30.4609 5.32775 29.9766C5.76309 29.4922 6.27044 29.2083 6.8498 29.125H12.5498C13.0046 29.125 13.4516 29.25 13.8909 29.5C14.3302 29.75 14.6987 30.0638 14.9966 30.4415C16.041 31.9285 17.3537 33.0808 18.9346 33.8985C20.5155 34.7162 22.2045 35.125 24.0017 35.125C25.7981 35.125 27.4983 34.7169 29.1024 33.9008C30.7064 33.0846 32.0472 31.9343 33.1248 30.45C33.3748 30.0667 33.7054 29.75 34.1167 29.5C34.528 29.25 34.9723 29.125 35.4498 29.125H41.1498C41.7856 29.2083 42.3238 29.4917 42.7642 29.975C43.2046 30.4583 43.4248 31.0333 43.4248 31.7V38.375H32.3248V33.025C31.1581 34.0417 29.8768 34.8292 28.4809 35.3875C27.0849 35.9458 25.589 36.225 23.9934 36.225C22.4643 36.225 20.9873 35.9583 19.5623 35.425C18.1373 34.8917 16.8748 34.1167 15.7748 33.1V38.375H4.6748ZM23.9883 30.825C22.9307 30.825 21.9182 30.5833 20.9509 30.1C19.9835 29.6167 19.1915 28.9074 18.5748 27.9723C18.1331 27.4241 17.6436 26.925 17.1061 26.475C16.5686 26.025 15.9831 25.6417 15.3498 25.325C16.4498 24.675 17.8187 24.1958 19.4565 23.8875C21.0943 23.5792 22.611 23.425 24.0065 23.425C25.4354 23.425 26.9581 23.5792 28.5748 23.8875C30.1915 24.1958 31.5748 24.675 32.7248 25.325C32.0748 25.6417 31.4748 26.025 30.9248 26.475C30.3748 26.925 29.9165 27.425 29.5498 27.975C28.9165 28.9083 28.1039 29.6167 27.112 30.1C26.1202 30.5833 25.0789 30.825 23.9883 30.825ZM9.5122 24.675C8.2706 24.675 7.20397 24.2274 6.3123 23.3323C5.42064 22.4372 4.9748 21.3764 4.9748 20.15C4.9748 18.8667 5.42237 17.7833 6.3175 16.9C7.21264 16.0167 8.2734 15.575 9.4998 15.575C10.7831 15.575 11.8665 16.0167 12.7498 16.9C13.6331 17.7833 14.0748 18.8626 14.0748 20.1377C14.0748 21.3792 13.6331 22.4458 12.7498 23.3375C11.8665 24.2292 10.7873 24.675 9.5122 24.675ZM38.5122 24.675C37.2706 24.675 36.204 24.2274 35.3123 23.3323C34.4206 22.4372 33.9748 21.3764 33.9748 20.15C33.9748 18.8667 34.4224 17.7833 35.3175 16.9C36.2126 16.0167 37.2734 15.575 38.4998 15.575C39.7831 15.575 40.8665 16.0167 41.7498 16.9C42.6331 17.7833 43.0748 18.8626 43.0748 20.1377C43.0748 21.3792 42.6331 22.4458 41.7498 23.3375C40.8665 24.2292 39.7873 24.675 38.5122 24.675ZM24.0122 18.675C22.7706 18.675 21.704 18.2274 20.8123 17.3323C19.9206 16.4372 19.4748 15.3764 19.4748 14.15C19.4748 12.8667 19.9224 11.7833 20.8175 10.9C21.7126 10.0167 22.7734 9.57501 23.9998 9.57501C25.2831 9.57501 26.3665 10.0167 27.2498 10.9C28.1331 11.7833 28.5748 12.8626 28.5748 14.1377C28.5748 15.3792 28.1331 16.4458 27.2498 17.3375C26.3665 18.2292 25.2873 18.675 24.0122 18.675Z" fill="#DFB187"/>
</g>
</svg>
