<svg width="48" height="48" viewBox="0 0 48 48" fill="none" xmlns="http://www.w3.org/2000/svg">
<mask id="mask0_442_264" style="mask-type:alpha" maskUnits="userSpaceOnUse" x="0" y="0" width="48" height="48">
<rect width="48" height="48" fill="#D9D9D9"/>
</mask>
<g mask="url(#mask0_442_264)">
<path d="M12.6252 43.675V43C12.6252 38.3 13.5877 34.7125 15.5127 32.2375C17.4377 29.7625 20.0002 27.0167 23.2002 24C19.9669 20.9834 17.3877 18.2375 15.4627 15.7625C13.5377 13.2875 12.5752 9.70002 12.5752 5.00002V4.27502H13.6581V5.00002C13.6581 5.76669 13.6846 6.50002 13.7374 7.20002C13.7902 7.90002 13.8862 8.55836 14.0252 9.17502H33.9822C34.0799 8.55836 34.1614 7.90002 34.2269 7.20002C34.2924 6.50002 34.3252 5.76669 34.3252 5.00002V4.27502H35.4252V5.00002C35.4252 9.70002 34.4544 13.2875 32.5127 15.7625C30.571 18.2375 28.0002 20.9834 24.8002 24C28.0002 26.9834 30.571 29.7209 32.5127 32.2125C34.4544 34.7042 35.4252 38.3 35.4252 43V43.675H34.3422V43C34.3422 42.2334 34.3075 41.5 34.238 40.8C34.1685 40.1 34.0809 39.425 33.9752 38.775H14.0681C13.9372 39.425 13.8473 40.1 13.7984 40.8C13.7496 41.5 13.7252 42.2334 13.7252 43V43.675H12.6252ZM17.4252 16.575H30.5843C31.3116 15.6584 31.9377 14.6834 32.4627 13.65C32.9877 12.6167 33.4252 11.4917 33.7752 10.275H14.2752C14.5419 11.53 14.9429 12.6673 15.4783 13.6869C16.0137 14.7065 16.6627 15.6692 17.4252 16.575ZM24.0002 23.25C25.1036 22.2223 26.1253 21.2653 27.0653 20.3792C28.0052 19.4931 28.8669 18.5917 29.6502 17.675H18.3002C19.075 18.6028 19.9437 19.5097 20.9063 20.3959C21.8689 21.282 22.9002 22.2334 24.0002 23.25ZM18.3502 30.275H29.6502C28.8669 29.3917 28.0052 28.507 27.0653 27.6209C26.1253 26.7347 25.1036 25.7778 24.0002 24.75C22.8968 25.7778 21.8751 26.7347 20.9351 27.6209C19.9952 28.507 19.1335 29.3917 18.3502 30.275ZM14.3252 37.675H33.7752C33.4419 36.4584 33.0075 35.3394 32.4721 34.3181C31.9367 33.2969 31.3044 32.3158 30.5752 31.375H17.4752C16.7262 32.3139 16.0848 33.3028 15.551 34.3417C15.0171 35.3806 14.6085 36.4917 14.3252 37.675Z" fill="#DFB187"/>
</g>
</svg>
