<svg width="48" height="48" viewBox="0 0 48 48" fill="none" xmlns="http://www.w3.org/2000/svg">
<mask id="mask0_442_270" style="mask-type:alpha" maskUnits="userSpaceOnUse" x="0" y="0" width="48" height="48">
<rect width="48" height="48" fill="#D9D9D9"/>
</mask>
<g mask="url(#mask0_442_270)">
<path d="M7.2998 39.8V14.45H15.3998V6.40002H32.6498V22.55H40.6998V39.8H27.4998V31.7H20.4998V39.8H7.2998ZM8.3998 38.7H15.3998V31.7H8.3998V38.7ZM8.3998 30.6H15.3998V23.65H8.3998V30.6ZM8.3998 22.55H15.3998V15.55H8.3998V22.55ZM16.4998 30.6H23.4498V23.65H16.4998V30.6ZM16.4998 22.55H23.4498V15.55H16.4998V22.55ZM16.4998 14.45H23.4498V7.50002H16.4998V14.45ZM24.5498 30.6H31.5498V23.65H24.5498V30.6ZM24.5498 22.55H31.5498V15.55H24.5498V22.55ZM24.5498 14.45H31.5498V7.50002H24.5498V14.45ZM32.6498 38.7H39.5998V31.7H32.6498V38.7ZM32.6498 30.6H39.5998V23.65H32.6498V30.6Z" fill="#DFB187"/>
</g>
</svg>
